<svg id="Layer_1" data-name="Layer 1" xmlns="http://www.w3.org/2000/svg" viewBox="0 0 95.01 101"><defs><style>.cls-1{fill:#246877;}.cls-2{fill:#fff;}.cls-3{fill:#dcecef;}.cls-4{fill:#3f4754;}.cls-5{fill:#1c2321;stroke:#fff;stroke-miterlimit:10;}</style></defs><title>Lightcard Illustrations</title><circle class="cls-1" cx="28.14" cy="19.55" r="13.46"/><path class="cls-2" d="M28.14,33.51a14,14,0,1,1,14-14A14,14,0,0,1,28.14,33.51Zm0-26.92a13,13,0,1,0,13,13A13,13,0,0,0,28.14,6.58Z"/><circle class="cls-1" cx="26.41" cy="44.28" r="13.46"/><path class="cls-2" d="M26.41,58.24a14,14,0,1,1,14-14A14,14,0,0,1,26.41,58.24Zm0-26.92a13,13,0,1,0,13,13A13,13,0,0,0,26.41,31.32Z"/><path class="cls-2" d="M26.69,35.77l1.61,2.78c.51.88,1,1.76,1.53,2.64a.49.49,0,0,0,.29.21,16.42,16.42,0,0,1,3.54,1,6.09,6.09,0,0,1,2,1.28,1.7,1.7,0,0,1-.29,2.84,5.24,5.24,0,0,1-2.61.79,3.58,3.58,0,0,1-3.59-2Q27.33,42.17,25.52,39a.47.47,0,0,1,0-.35C25.86,37.72,26.27,36.77,26.69,35.77ZM30.29,42c.39.68.72,1.29,1.09,1.88s.8,1.27,1.23,1.88a1.11,1.11,0,0,0,.92.53,2,2,0,0,0,1.38-.56,1,1,0,0,0,.29-1,2.07,2.07,0,0,0-.77-1.09A9.58,9.58,0,0,0,30.29,42Z"/><path class="cls-2" d="M24.35,41.26c-.1.24-.19.47-.3.68a.34.34,0,0,1-.23.11,9.37,9.37,0,0,0-3.54,1.23,5.58,5.58,0,0,0-1,.76,1.73,1.73,0,0,0-.07,2.61,6,6,0,0,0,2.51,1.57,22,22,0,0,0,4.75,1.08c-.61,0-1.21,0-1.82,0a13.85,13.85,0,0,1-5.81-1.41,5.41,5.41,0,0,1-1.67-1.23,2,2,0,0,1,.21-3.12A7.68,7.68,0,0,1,20.23,42a16.56,16.56,0,0,1,3.89-.75Z"/><path class="cls-2" d="M23.13,44.09a1.56,1.56,0,0,1,1.58,1.56,1.58,1.58,0,1,1-3.16,0A1.55,1.55,0,0,1,23.13,44.09Z"/><circle class="cls-1" cx="48.85" cy="34.23" r="13.46"/><path class="cls-2" d="M48.85,48.19a14,14,0,1,1,14-14A14,14,0,0,1,48.85,48.19Zm0-26.92a13,13,0,1,0,13,13A13,13,0,0,0,48.85,21.26Z"/><path class="cls-2" d="M47.71,35.34A2.06,2.06,0,0,1,49.4,35c.5.13,1,.31,1.49.46a2.15,2.15,0,0,0,1.56,0c.5-.23,1-.49,1.48-.75a.37.37,0,0,0,.17-.28c-.05-1.11-.12-2.22-.19-3.33,0,0,0,0,0,0-.43.16-.86.34-1.3.46a4.47,4.47,0,0,1-3.31-.36,3.49,3.49,0,0,0-1.77-.44,4.46,4.46,0,0,0-1.79.38l-.13,0a.64.64,0,0,1,0-.14A1,1,0,0,0,45,29.94c-.3-.18-.56-.43-.85-.62a.4.4,0,0,0-.3-.07c-.06,0-.1.17-.1.26,0,.5,0,1,0,1.49,0,.12,0,.29.13.34A3.2,3.2,0,0,1,45,32.9L50,42.47c0,.06.05.12.09.22l-1.15.45a.24.24,0,0,1-.15,0,9.88,9.88,0,0,1-5-3.43,7,7,0,0,1-1.43-4.28c0-1.56.09-3.11.16-4.67,0-.57.1-1.14.15-1.71a.83.83,0,0,1,.76-.86,25.22,25.22,0,0,1,7.3-.5c1.22.1,2.43.34,3.65.53a.67.67,0,0,1,.63.67c.08.71.15,1.41.19,2.12.08,1.33.18,2.66.19,4A7.68,7.68,0,0,1,52,41.57c-.24.18-.5.33-.75.5l-.1,0Zm-4-2.73h-.07c0,.09,0,.18,0,.27,0,.63,0,1.27-.06,1.9a6.28,6.28,0,0,0,.54,3,7.38,7.38,0,0,0,3.59,3.52c.13.07.27.11.4.17l0-.05Zm7.84,7.73a6.56,6.56,0,0,0,2.51-4.47H54l-.09.06a3.61,3.61,0,0,1-3.79.53l-.71-.27ZM45.43,29.08l0,.07,1,.66s.13,0,.19,0a10.24,10.24,0,0,1,1.5,0,4.76,4.76,0,0,1,1.27.38,4.94,4.94,0,0,0,4.2-.05c.35-.16.2-.4.2-.62s-.2-.17-.31-.19a25.68,25.68,0,0,0-4.56-.46A25.23,25.23,0,0,0,45.43,29.08Z"/><path class="cls-2" d="M19.62,19.32c.29-.13.35.06.42.3a8.72,8.72,0,0,0,5.22,5.91,19.81,19.81,0,0,0,2,.58c0-.93.07-1.74.07-2.54a.63.63,0,0,0-.21-.35c-1-1.07-2-2.13-3-3.18a.75.75,0,0,0-.52-.21c-.44,0-.87.13-1.31.18-.1,0-.21-.07-.32-.1.06-.12.1-.29.19-.34.31-.18.65-.32,1-.49a1,1,0,0,0-.95-.63H19.44c.13-.19.17-.35.27-.4a10.5,10.5,0,0,1,3.49-.88c.09,0,.22.09.3.17a13.54,13.54,0,0,1,1,1,.75.75,0,0,0,1,.19c-.57-.63-1.09-1.28-1.69-1.83a1.34,1.34,0,0,0-.89-.14c-.95,0-1.89.14-2.83.21l-.35,0-.08-.1c.1-.13.18-.31.3-.38a13.15,13.15,0,0,1,3.62-1.19,1.42,1.42,0,0,1,1.54.68.53.53,0,0,0,.76.17,9,9,0,0,1,3.46-.82l.25,0a.38.38,0,0,0-.46-.42c-1,.09-2,.19-3.06.33-.25,0-.41,0-.56-.17a.94.94,0,0,0-.82-.36,12.1,12.1,0,0,0-4.47.6L20.1,15c.12-.16.22-.39.37-.48,1-.59,2-1.15,2.88-1.69.12-.16.2-.36.33-.42A10.18,10.18,0,0,1,31,11.75a1.07,1.07,0,0,1,.46.31c.26.27.48.57.73.86,0,0,0,0,.08-.06A2.33,2.33,0,0,1,33,13c1,.49,1.94,1,2.89,1.56.17.1.28.32.48.56l-3.2-.63c.17.5.25.82.71.95.86.25,1.69.6,2.54.91a.39.39,0,0,1,.29.53l-2.63-.28c0,.7.1.75.61.89s1.26.38,1.88.6c.1,0,.17.18.25.27a1,1,0,0,1-.31.11,14.36,14.36,0,0,0-3.32.22c-.18,0-.43-.17-.63-.31s-.38-.15-.58.07c-.94,1-1.91,2-2.86,3a.82.82,0,0,0-.22.51c0,1.18.07,2.36.11,3.54,0,.58,0,.6.55.49a8.58,8.58,0,0,0,6.76-6.35c.11-.34.1-.34.51-.3A9,9,0,0,1,33.08,26a8,8,0,0,1-9.39.27C21.3,24.85,19.37,21.42,19.62,19.32Zm10.94-.17c-.68-.71-1.38-1.39-2-2.13a.82.82,0,0,0-1.11-.28c-.66.32-1.32.61-2,.95.46.55.77,1.06,1.46.9.31-.07.46.1.51.43a2.6,2.6,0,0,0,.24,1,9.22,9.22,0,0,0,1.06,1.14Zm-3.13,3.56c0-.55.07-1.08.09-1.61a.83.83,0,0,0-.63-.94,6.3,6.3,0,0,0-.89-.22c-.42-.07-.85-.09-1.27-.13l0,.12Zm4.4-4.86A7.69,7.69,0,0,0,29.21,17l1.71,1.83Z"/><rect class="cls-3" x="18.72" y="60.13" width="56.83" height="27.81" transform="translate(-12.24 9.41) rotate(-10.09)"/><circle class="cls-4" cx="48.66" cy="72.17" r="10.47" transform="translate(-12 9.75) rotate(-10.19)"/><path class="cls-4" d="M14.22,62.66l5.47,30.42,61.19-11L75.41,51.66Zm60,11a4.49,4.49,0,0,0-3.63,5.22,4.45,4.45,0,0,0,.46,1.29L27.93,87.9a4.45,4.45,0,0,0,0-1.37,4.44,4.44,0,0,0-6.3-3.27L19.44,71.19a4.44,4.44,0,0,0,4.3-6.55l43.14-7.75a4.45,4.45,0,0,0,0,1.37,4.49,4.49,0,0,0,5.22,3.63,4.45,4.45,0,0,0,1.35-.49l2.2,12.25A4.45,4.45,0,0,0,74.23,73.64Z"/><path class="cls-3" d="M52.63,77.45l-3.72-4.18-.21,0-1.89.35.86,4.7-1.66.3L43.86,66.9l3.56-.65c2.81-.51,4.76.5,5.15,2.61a3.47,3.47,0,0,1-2.13,3.92l4.08,4.34ZM46.56,72.3,48.38,72c1.86-.34,2.71-1.34,2.45-2.79s-1.4-1.92-3.24-1.59l-1.82.33Z"/><path class="cls-5" d="M87.33,68.05l-5.84,3.22c-.61-.93-1.3-1.92-2.05-2.94-.39-.51-.77-1-1.19-1.57l-.63-.8-.66-.8c-.89-1.08-1.86-2.16-2.87-3.22s-2.09-2.1-3.23-3.08c-.28-.24-.56-.49-.85-.73l-.88-.7c-.57-.47-1.19-.89-1.78-1.33s-1.22-.81-1.82-1.2-1.23-.73-1.85-1A28.14,28.14,0,0,0,60,52.26a23.9,23.9,0,0,0-3.41-.93c-.54-.09-1-.18-1.53-.25L53.69,51a11.05,11.05,0,0,0-1.21,0h-1l-1.9.18,1.83.44.93.32a10.06,10.06,0,0,1,1.07.4l1.18.52c.4.21.81.44,1.24.67a21,21,0,0,1,2.58,1.77,24.22,24.22,0,0,1,2.52,2.34c.41.43.79.9,1.19,1.35s.76,1,1.12,1.47.72,1,1,1.55l.5.8c.16.27.32.55.47.82.63,1.09,1.18,2.23,1.71,3.34s1,2.26,1.39,3.37l.3.82.28.82c.19.53.35,1.07.51,1.59.32,1,.59,2,.82,2.94.08.3.15.59.21.88L63.3,81.29l20.11,8.08Z"/></svg>