<svg id="Layer_1" data-name="Layer 1" xmlns="http://www.w3.org/2000/svg" viewBox="0 0 95.01 89.55"><defs><style>.cls-1{fill:#1c2321;}.cls-1,.cls-2,.cls-4{stroke:#fff;stroke-miterlimit:10;}.cls-2{fill:#246877;}.cls-3{fill:#fff;}.cls-4{fill:#3e4754;}</style></defs><title>Lightcard Illustrations</title><path class="cls-1" d="M74.89,45c0-1.07.15-2.18.09-3.28a12.28,12.28,0,0,0-1.84-5.95,15.27,15.27,0,0,0-3.77-4,24.34,24.34,0,0,0-4.43-2.7c-.1,0-.21-.08-.35-.13l-.69,1.42c-.43.87-.84,1.75-1.28,2.62-.23.46-.58.49-.84,0-.6-1-1.17-2.06-1.75-3.09l-4.56-8.16c-.25-.46-.5-.92-.74-1.38a.62.62,0,0,1,.45-1l3.92-.64,4.84-.78,4.81-.77c.23,0,.46-.1.7-.12.55,0,.74.2.52.7s-.53,1.13-.8,1.69l-.91,1.85c.59.32,1.16.62,1.72.95a16.47,16.47,0,0,1,6.13,6A13.54,13.54,0,0,1,77.8,33.1a16,16,0,0,1-.7,7.29A19.91,19.91,0,0,1,75,44.87,1.11,1.11,0,0,1,74.89,45Z"/><path class="cls-1" d="M20.46,47.34a13.35,13.35,0,0,0-.15,4.1,12.58,12.58,0,0,0,1.83,5.36,15,15,0,0,0,4.34,4.33c1.18.81,2.45,1.48,3.69,2.21a3.38,3.38,0,0,0,.49.19c.3-.61.61-1.22.91-1.83s.66-1.45,1-2.17c.25-.5.7-.47.94,0,.8,1.47,1.62,2.92,2.44,4.38l2.55,4.58c.67,1.21,1.35,2.42,2,3.63a.63.63,0,0,1-.48,1c-.79.14-1.58.26-2.36.38l-5.62.92-4.44.7c-.6.1-1.21.21-1.81.29s-.75-.18-.53-.68c.31-.71.67-1.4,1-2.09l.67-1.42c-1.11-.69-2.22-1.29-3.24-2a15.29,15.29,0,0,1-5.37-6.55,14.07,14.07,0,0,1-.71-8.46,20.9,20.9,0,0,1,2.5-6.35C20.2,47.67,20.31,47.54,20.46,47.34Z"/><path class="cls-2" d="M55.4,35.6A15.63,15.63,0,1,0,39.48,50.94,15.63,15.63,0,0,0,55.4,35.6Z"/><path class="cls-3" d="M32.28,42l.05-1.52c2-.78,3.33-2.14,3.39-3.75a6.91,6.91,0,0,0-.08-1.37l-3-.1.06-1.68,2.62.09a10.38,10.38,0,0,1-.18-1.89,5.58,5.58,0,0,1,6-5.7,6.63,6.63,0,0,1,3.29.87l-.65,2a5.48,5.48,0,0,0-2.72-.73c-2.22-.08-3.37,1.38-3.45,3.72a9.13,9.13,0,0,0,.15,1.86l4.53.16-.06,1.68-4.2-.14c0,.34,0,.7,0,1a4.25,4.25,0,0,1-2,3.46v.06l8.89.31-.07,2.16Z"/><circle class="cls-4" cx="56.22" cy="58.44" r="15.63" transform="translate(-3.85 112.92) rotate(-88.32)"/><path class="cls-3" d="M60.48,66.53,56.76,60h-.29l-2.58-.07-.17,6.4-2.26-.06.43-16,4.84.13c3.82.1,6.11,2,6,4.84a4.65,4.65,0,0,1-3.87,4.55L63,66.6ZM53.94,58.1l2.48.07c2.53.07,3.92-1,4-3s-1.31-2.91-3.82-3l-2.48-.07Z"/></svg>