<svg id="Layer_1" data-name="Layer 1" xmlns="http://www.w3.org/2000/svg" viewBox="0 0 95.01 89.55"><defs><style>.cls-1{fill:#246877;}.cls-1,.cls-2,.cls-3{stroke:#fff;stroke-miterlimit:10;}.cls-2{fill:#1c2321;stroke-width:2px;}.cls-3{fill:#dcecef;}.cls-4{fill:#1c5382;}.cls-5{opacity:0.6;}.cls-6{fill:#7d98a1;}.cls-7{fill:#fff;}</style></defs><title>Lightcard Illustrations</title><rect class="cls-1" x="20.01" y="17.65" width="58.3" height="49.92" rx="6.12" ry="6.12" transform="translate(-5.01 6.58) rotate(-7.29)"/><rect class="cls-2" x="26.19" y="12.57" width="6.81" height="15.72" rx="3.37" ry="3.37" transform="translate(-2.35 3.92) rotate(-7.29)"/><rect class="cls-2" x="59.1" y="8.36" width="6.81" height="15.72" rx="3.37" ry="3.37" transform="translate(-1.55 8.06) rotate(-7.29)"/><path class="cls-3" d="M76.84,29.26l3.62,28.34a6.13,6.13,0,0,1-5.29,6.84L29.48,70.29A6.13,6.13,0,0,1,22.64,65L19.15,36.56"/><rect class="cls-4" x="25.12" y="38.25" width="6.3" height="6.3" transform="translate(-4.65 3.59) rotate(-6.72)"/><rect class="cls-4" x="35.38" y="37.04" width="6.3" height="6.3" transform="translate(-4.44 4.78) rotate(-6.72)"/><rect class="cls-4" x="45.64" y="35.83" width="6.3" height="6.3" transform="translate(15.78 91.99) rotate(-96.72)"/><g class="cls-5"><rect class="cls-6" x="55.9" y="34.62" width="6.3" height="6.3" transform="translate(-4.01 7.17) rotate(-6.72)"/><rect class="cls-6" x="26.35" y="48.73" width="6.3" height="6.3" transform="translate(-5.87 3.81) rotate(-6.72)"/><rect class="cls-6" x="36.61" y="47.52" width="6.3" height="6.3" transform="translate(-5.65 5) rotate(-6.72)"/><rect class="cls-6" x="46.87" y="46.31" width="6.3" height="6.3" transform="translate(-5.44 6.19) rotate(-6.72)"/><rect class="cls-6" x="57.13" y="45.1" width="6.3" height="6.3" transform="translate(-5.23 7.38) rotate(-6.72)"/><rect class="cls-6" x="37.84" y="58" width="6.3" height="6.3" transform="translate(-6.87 5.21) rotate(-6.72)"/><rect class="cls-6" x="48.11" y="56.79" width="6.3" height="6.3" transform="translate(-6.66 6.41) rotate(-6.72)"/><rect class="cls-6" x="58.37" y="55.58" width="6.3" height="6.3" transform="translate(-6.45 7.6) rotate(-6.72)"/><rect class="cls-6" x="66.16" y="33.41" width="6.3" height="6.3" transform="translate(-3.8 8.36) rotate(-6.72)"/><rect class="cls-6" x="67.39" y="43.89" width="6.3" height="6.3" transform="translate(-5.02 8.57) rotate(-6.72)"/><rect class="cls-6" x="68.63" y="54.38" width="6.3" height="6.3" transform="translate(-6.24 8.79) rotate(-6.72)"/></g><circle class="cls-2" cx="25.49" cy="68.87" r="10.75" transform="matrix(0.04, -1, 1, 0.04, -44.43, 91.33)"/><polygon class="cls-7" points="25.99 68.74 26.23 63.24 24.3 63.16 24.06 68.65 23.99 70.28 23.97 70.59 31.07 70.9 31.16 68.96 25.99 68.74"/></svg>