<svg id="Layer_1" data-name="Layer 1" xmlns="http://www.w3.org/2000/svg" xmlns:xlink="http://www.w3.org/1999/xlink" viewBox="0 0 95.01 101"><defs><style>.cls-1,.cls-7,.cls-8{fill:none;}.cls-2{clip-path:url(#clip-path);}.cls-3{fill:#3e4754;}.cls-4{fill:#353f4c;}.cls-5{fill:#1c2321;}.cls-6{fill:#dcecef;}.cls-7{stroke:#dcecef;stroke-width:2px;}.cls-7,.cls-8{stroke-miterlimit:10;}.cls-8{stroke:#1c5382;}.cls-9{fill:#1c5382;}</style><clipPath id="clip-path"><circle class="cls-1" cx="96.3" cy="-163.18" r="84.95"/></clipPath></defs><title>Lightcard Illustrations</title><g class="cls-2"><circle class="cls-3" cx="95.94" cy="-36.87" r="84.95"/><path class="cls-4" d="M95.94,48.08A85,85,0,0,1,11-36.87a85,85,0,0,1,84.95-84.95"/></g><g class="cls-2"><circle class="cls-3" cx="95.94" cy="-36.87" r="84.95"/><path class="cls-4" d="M95.94,48.08A85,85,0,0,1,11-36.87a85,85,0,0,1,84.95-84.95"/></g><rect class="cls-5" x="25.02" y="8.62" width="43.58" height="84.87" rx="8.58" ry="8.58" transform="translate(29.86 -16.1) rotate(28.35)"/><rect class="cls-6" x="31.5" y="19.67" width="32.98" height="58.38" transform="translate(28.96 -16.93) rotate(28.35)"/><circle class="cls-6" cx="57.89" cy="14.88" r="1.42" transform="translate(17.31 58.76) rotate(-61.65)"/><rect class="cls-6" x="60.63" y="18.26" width="12.33" height="2.84" rx="1.16" ry="1.16" transform="translate(17.36 -29.35) rotate(28.35)"/><circle class="cls-7" cx="30.39" cy="81.48" r="3.23" transform="translate(-55.75 69.54) rotate(-61.65)"/><rect class="cls-8" x="30.18" y="52.81" width="26.22" height="9.46" rx="4.73" ry="4.73" transform="translate(34.25 -13.9) rotate(29.75)"/><path class="cls-3" d="M35.76,50.32l.91.52-1.5,2.63a1.71,1.71,0,0,0-.26.7,1,1,0,0,0,1.41.81,1.71,1.71,0,0,0,.47-.58l1.5-2.63.91.52-1.5,2.63a2.54,2.54,0,0,1-.82.94,1.81,1.81,0,0,1-1.9-.16,1.82,1.82,0,0,1-1.11-1.56,2.54,2.54,0,0,1,.4-1.18Z"/><path class="cls-3" d="M39.92,53.29A1.66,1.66,0,0,1,42,55.06a3.82,3.82,0,0,1-.52,1.39,4.16,4.16,0,0,1-.92,1.16,1.57,1.57,0,0,1-1.92.19,1.6,1.6,0,0,1-.69-.77A1.27,1.27,0,0,1,38,56l.83.47a.57.57,0,0,0,0,.39.56.56,0,0,0,.27.31A.68.68,0,0,0,39.9,57a3.06,3.06,0,0,0,.53-.66,1,1,0,0,1-.37.08,1.26,1.26,0,0,1-.65-.19,1.5,1.5,0,0,1-.69-.86,1.46,1.46,0,0,1,.18-1.22A1.78,1.78,0,0,1,39.92,53.29Zm.44,2.47A.79.79,0,0,0,41,55.3a1,1,0,0,0,.16-.66.64.64,0,0,0-.34-.47.65.65,0,0,0-.43-.09.87.87,0,0,0-.6.49,1,1,0,0,0-.17.65.65.65,0,0,0,.36.46A.67.67,0,0,0,40.35,55.76Z"/><path class="cls-3" d="M42.18,57.95a1.09,1.09,0,0,0-.16.46.64.64,0,0,0,.37.62.7.7,0,0,0,.52.08.72.72,0,0,0,.46-.38.62.62,0,0,0,0-.75,2,2,0,0,0-.56-.42l.34-.59a1.79,1.79,0,0,0,.61.24.56.56,0,0,0,.56-.34.64.64,0,0,0,.08-.47.59.59,0,0,0-.31-.38.58.58,0,0,0-.54-.06.91.91,0,0,0-.42.42l-.77-.44a2.39,2.39,0,0,1,.45-.53,1.54,1.54,0,0,1,.58-.27,1.28,1.28,0,0,1,.52,0,1.92,1.92,0,0,1,.59.23,1.68,1.68,0,0,1,.79.87,1.2,1.2,0,0,1-.11,1,1.07,1.07,0,0,1-.58.5.87.87,0,0,1-.42.05.69.69,0,0,1,.21.38,1.2,1.2,0,0,1-.14,1,1.56,1.56,0,0,1-.91.73A1.62,1.62,0,0,1,42,59.71a1.53,1.53,0,0,1-.91-1.29,2,2,0,0,1,.26-.93Z"/><path class="cls-3" d="M46.69,56.56l.88.5-1,1.76L49.23,58l1.16.66-2.76.76L48,63l-1.15-.66-.25-2.62-.68.19-.82,1.43-.88-.5Z"/><path class="cls-3" d="M50,62l-.06.1a2.27,2.27,0,0,0-.3.76.54.54,0,0,0,.8.43,1.39,1.39,0,0,0,.31-.41l1.71-3,.89.51-1.7,3a2,2,0,0,1-.68.76,1.37,1.37,0,0,1-1.44-.1q-.82-.47-.84-1.06a2.54,2.54,0,0,1,.4-1.35l.06-.1Z"/><path class="cls-9" d="M54.42,46.33a7,7,0,0,0-1.17-3.59,4.82,4.82,0,0,1-5.53-3,6.91,6.91,0,0,0-6.26,3.57l8.86,4.88A3.71,3.71,0,0,1,54.42,46.33Z"/><polygon class="cls-9" points="56.79 50.97 54.8 49.88 55.89 47.89 54.41 47.07 53.31 49.06 51.33 47.96 50.51 49.45 52.49 50.55 51.4 52.53 52.89 53.35 53.98 51.37 55.97 52.46 56.79 50.97"/><circle class="cls-9" cx="52.26" cy="38" r="3.56" transform="translate(-6.25 65.43) rotate(-61.14)"/></svg>